<svg width="400" height="400" viewBox="0 0 400 400" fill="none" xmlns="http://www.w3.org/2000/svg">
  <circle cx="200" cy="200" r="190" stroke="black" stroke-width="10" fill="white"/>
  
  <!-- Зірки сузір'я -->
  <circle cx="120" cy="120" r="5" fill="black"/>
  <circle cx="160" cy="100" r="5" fill="black"/>
  <circle cx="200" cy="110" r="5" fill="black"/>
  <circle cx="240" cy="130" r="5" fill="black"/>
  <circle cx="260" cy="170" r="5" fill="black"/>
  <circle cx="230" cy="200" r="5" fill="black"/>
  <circle cx="190" cy="190" r="5" fill="black"/>
  <circle cx="160" cy="160" r="5" fill="black"/>

  <!-- Лінії між зірками -->
  <line x1="120" y1="120" x2="160" y2="100" stroke="black" stroke-width="2"/>
  <line x1="160" y1="100" x2="200" y2="110" stroke="black" stroke-width="2"/>
  <line x1="200" y1="110" x2="240" y2="130" stroke="black" stroke-width="2"/>
  <line x1="240" y1="130" x2="260" y2="170" stroke="black" stroke-width="2"/>
  <line x1="260" y1="170" x2="230" y2="200" stroke="black" stroke-width="2"/>
  <line x1="230" y1="200" x2="190" y2="190" stroke="black" stroke-width="2"/>
  <line x1="190" y1="190" x2="160" y2="160" stroke="black" stroke-width="2"/>
  <line x1="160" y1="160" x2="120" y2="120" stroke="black" stroke-width="2"/>

  <!-- Текст -->
  <text x="120" y="300" font-family="Brush Script MT, cursive" font-size="48" fill="black">Taras P.</text>
</svg>
